<svg xmlns="http://www.w3.org/2000/svg" viewBox="0 0 1200 630" width="1200" height="630">
  <defs>
    <linearGradient id="bg" x1="0%" y1="0%" x2="100%" y2="100%">
      <stop offset="0%" style="stop-color:#0b0d13;stop-opacity:1" />
      <stop offset="100%" style="stop-color:#1a1e29;stop-opacity:1" />
    </linearGradient>
    <linearGradient id="shield" x1="0%" y1="0%" x2="0%" y2="100%">
      <stop offset="0%" style="stop-color:#1a1e29;stop-opacity:1" />
      <stop offset="100%" style="stop-color:#0b0d13;stop-opacity:1" />
    </linearGradient>
  </defs>
  <rect width="1200" height="630" fill="url(#bg)"/>
  <!-- Grid -->
  <g stroke="#1a1e29" stroke-width="1" opacity="0.4">
    <line x1="0" y1="157" x2="1200" y2="157"/>
    <line x1="0" y1="315" x2="1200" y2="315"/>
    <line x1="0" y1="473" x2="1200" y2="473"/>
    <line x1="300" y1="0" x2="300" y2="630"/>
    <line x1="600" y1="0" x2="600" y2="630"/>
    <line x1="900" y1="0" x2="900" y2="630"/>
  </g>
  <!-- Shield centered -->
  <g transform="translate(440, 130)">
    <path d="M 160 0 L 320 50 L 320 200 Q 320 290 160 340 Q 0 290 0 200 L 0 50 Z"
          fill="url(#shield)" stroke="#00ff66" stroke-width="4"/>
    <g fill="#00ff66">
      <path d="M 60 90 L 90 90 L 105 220 L 130 110 L 155 220 L 180 90 L 210 90 L 175 280 L 150 280 L 130 200 L 110 280 L 85 280 Z"/>
      <rect x="40" y="260" width="240" height="5" rx="2" opacity="0.8"/>
    </g>
  </g>
  <text x="600" y="540" font-family="Inter, sans-serif" font-size="42" font-weight="800" fill="#ffffff" text-anchor="middle" letter-spacing="-1">WalletGuard Pro</text>
  <text x="600" y="585" font-family="Inter, sans-serif" font-size="22" font-weight="400" fill="#8a92a3" text-anchor="middle">Free, open-source Web3 wallet security</text>
</svg>
